<svg width="52" height="44" viewBox="0 0 52 44" fill="none" xmlns="http://www.w3.org/2000/svg">
<path d="M51.08 0C38.95 0 29.08 9.87 29.08 22V22.3H36.23C36.07 29.91 29.91 36.07 22.29 36.23C22.18 24.19 12.36 14.43 0.3 14.43H0V22.19H0.3C8.15 22.19 14.54 28.58 14.54 36.43V36.81H21.69V43.99H21.99C34.12 43.99 43.99 34.12 43.99 21.99V21.69H36.84C37 13.98 43.32 7.75 51.07 7.75H51.37V0H51.07H51.08ZM15.15 36.21C14.99 28.26 8.56 21.75 0.61 21.59V15.05C12.16 15.21 21.53 24.66 21.7 36.22H15.16L15.15 36.21ZM22.3 43.39V36.85C30.25 36.69 36.68 30.26 36.84 22.31H43.38C43.22 33.86 33.85 43.23 22.29 43.4L22.3 43.39ZM50.78 7.15C42.83 7.31 36.4 13.74 36.24 21.69H29.7C29.86 10.14 39.23 0.77 50.79 0.6V7.14L50.78 7.15Z" fill="#000000"/>
</svg>
